<svg width="1112" height="660" viewBox="0 0 1112 660" fill="none" xmlns="http://www.w3.org/2000/svg">
<path fill-rule="evenodd" clip-rule="evenodd" d="M861.831 138.081C903.846 135.708 954.886 112.066 981.78 142.095C1008.74 172.197 975.049 214.651 964.293 252.488C954.314 287.596 955.995 329.072 923.052 348.692C886.632 370.384 835.923 372.446 799.643 350.553C766.499 330.553 770.008 287.827 762.52 251.821C755.559 218.352 735.776 181.176 758.906 154.685C781.961 128.28 825.261 140.147 861.831 138.081Z" fill="#5efc82" fill-opacity="0.5"/>
<path fill-rule="evenodd" clip-rule="evenodd" d="M339.201 95.7175C365.779 98.728 379.721 120.798 398.23 137.468C420.89 157.878 458.17 172.682 455.901 200.827C453.454 231.172 420.519 253.05 387.952 264.948C357.269 276.156 322.611 273.557 293.041 260.322C264.654 247.617 244.928 224.644 237.924 197.801C230.954 171.09 236.138 142.278 256.803 121.449C276.752 101.341 308.719 92.265 339.201 95.7175Z" fill="#5efc82" fill-opacity="0.5"/>
<path fill-rule="evenodd" clip-rule="evenodd" d="M123.328 356.073C143.849 353.715 169.049 350.332 181.404 365.439C193.63 380.388 178.031 399.878 174.116 418.174C169.893 437.909 177.031 463.087 158.249 473.656C138.745 484.63 114.502 472.427 93.8669 463.33C73.3057 454.266 48.2997 444.463 45.2562 423.845C42.3247 403.986 65.1911 390.788 81.1175 376.962C93.3124 366.376 106.613 357.994 123.328 356.073Z" fill="#00c853" fill-opacity="0.5"/>
</svg>