<svg width="1112" height="660" viewBox="0 0 1112 660" fill="none" xmlns="http://www.w3.org/2000/svg">
<path fill-rule="evenodd" clip-rule="evenodd" d="M499.656 216.907C565.355 215.097 642.411 173.803 687.056 219.267C732.402 265.445 696.323 337.985 677.958 398.478C661.392 453.046 645 513.778 590.387 537.693C536.348 561.357 476.239 535.371 423.016 510.118C371.388 485.621 322.555 453.864 304.581 402.086C284.45 344.096 279.896 272.525 325.508 229.227C368.66 188.264 438.437 218.593 499.656 216.907Z" fill="#ACF8F0" fill-opacity="0.5"/>
<path fill-rule="evenodd" clip-rule="evenodd" d="M767.888 276.519C811.614 311.119 858.878 358.768 850.457 411.278C842.472 461.077 778.298 469.384 733.419 491.477C700.949 507.461 669.828 524.027 632.723 518.465C585.964 511.456 531.883 500.414 509.938 457.977C487.344 414.286 510.832 366.242 532.67 324.99C554.205 284.312 581.92 244.642 627.894 235.168C676.543 225.143 727.269 244.379 767.888 276.519Z" fill="#6EEAD8" fill-opacity="0.5"/>
</svg>