<svg width="1112" height="660" viewBox="0 0 1112 660" fill="none" xmlns="http://www.w3.org/2000/svg">
<path fill-rule="evenodd" clip-rule="evenodd" d="M715.627 386.047C704.337 449.963 651.958 492.868 588.937 508.393C477.677 535.801 331.694 595.178 278.35 493.766C222.731 388.03 333.389 276.893 430.726 207.619C493.233 163.134 571.535 198.112 636.556 238.833C688.748 271.52 726.34 325.404 715.627 386.047Z" fill="#5efc82" fill-opacity="0.5"/>
<path fill-rule="evenodd" clip-rule="evenodd" d="M689.997 225.197C723.871 228.714 747.709 250.098 771.846 271.196C802.328 297.84 844.907 321.213 842.934 358.88C840.68 401.902 805.213 438.599 761.998 459.19C715.949 481.131 660.292 488.078 612.876 468.495C565.062 448.747 532.009 407.159 524.972 361.295C518.574 319.592 544.554 280.085 579.542 251.23C608.739 227.151 650.16 221.061 689.997 225.197Z" fill="#00c853" fill-opacity="0.5"/>
</svg>