<svg width="1112" height="1001" viewBox="0 0 1112 1001" fill="none" xmlns="http://www.w3.org/2000/svg">
<path fill-rule="evenodd" clip-rule="evenodd" d="M592.707 727.061C636.822 726.491 688.195 729.166 712.307 766.741C735.317 802.596 706.581 846.284 695.769 887.663C685.772 925.921 687.258 972.4 653.446 992.011C618.086 1012.52 576.251 993.473 538.068 979.127C492.037 961.832 433.214 951.844 419.227 904.008C404.832 854.775 441.198 806.158 476.858 769.784C507.372 738.661 549.494 727.62 592.707 727.061Z" fill="#00C853" fill-opacity="0.5"/>
<path fill-rule="evenodd" clip-rule="evenodd" d="M298.123 168.433C338.73 175.973 376.918 182.816 415.375 198.469C468.652 220.154 546.419 220.191 564.948 277.037C583.398 333.639 513.025 378.881 492.351 434.626C473.516 485.413 486.334 549.157 449.72 587.737C411.258 628.263 352.402 643.659 298.123 639.28C245.973 635.072 198.089 604.913 162.529 564.565C130.995 528.783 121.469 479.232 114.55 430.984C108.628 389.7 121.258 350.844 125.93 309.382C132.135 254.315 104.775 182.58 146.378 148.526C187.616 114.77 246.666 158.88 298.123 168.433Z" fill="#5EFC82" fill-opacity="0.5"/>
<path fill-rule="evenodd" clip-rule="evenodd" d="M904.942 46.2429C914.439 46.054 924.728 42.4694 932.675 48.4142C940.722 54.4346 943.61 66.1525 945.846 76.8424C947.935 86.8259 949.787 98.2491 944.902 106.864C940.222 115.117 929.483 113.992 922.011 118.873C915.765 122.953 911.877 130.769 904.942 132.963C896.488 135.638 886.271 138.44 879.275 132.393C872.28 126.346 875.54 113.401 871.813 104.327C867.208 93.1157 853.732 85.8093 855.097 73.5229C856.431 61.5099 868.344 54.7347 877.902 49.5036C886.281 44.9178 895.653 46.4277 904.942 46.2429Z" fill="#5EFC82" fill-opacity="0.5"/>
<path fill-rule="evenodd" clip-rule="evenodd" d="M875.551 377.462C905.398 382.448 935.294 388.658 958.271 406.166C980.025 422.743 995.103 446.098 998.626 471.247C1001.81 493.978 983.809 513.398 976.368 535.343C968.662 558.069 971.805 583.96 954.3 601.98C934.453 622.41 905.847 635.864 875.551 639.126C842.849 642.646 809.827 635.346 781.459 620.586C750.97 604.723 713.653 584.677 711.095 553.561C708.49 521.867 760.132 506.812 769.584 476.145C779.958 442.489 739.2 399.452 766.404 374.119C792.051 350.234 838.886 371.338 875.551 377.462Z" fill="#00C853" fill-opacity="0.5"/>
</svg>