<svg xmlns="http://www.w3.org/2000/svg" viewBox="0 0 1440 320"><path fill="#111" fill-opacity="1" d="M0,192L26.7,186.7C53.3,181,107,171,160,176C213.3,181,267,203,320,181.3C373.3,160,427,96,480,69.3C533.3,43,587,53,640,80C693.3,107,747,149,800,165.3C853.3,181,907,171,960,149.3C1013.3,128,1067,96,1120,80C1173.3,64,1227,64,1280,64C1333.3,64,1387,64,1413,64L1440,64L1440,320L1413.3,320C1386.7,320,1333,320,1280,320C1226.7,320,1173,320,1120,320C1066.7,320,1013,320,960,320C906.7,320,853,320,800,320C746.7,320,693,320,640,320C586.7,320,533,320,480,320C426.7,320,373,320,320,320C266.7,320,213,320,160,320C106.7,320,53,320,27,320L0,320Z"></path></svg>