<svg xmlns="http://www.w3.org/2000/svg" viewBox="0 0 1440 320"><path fill="#111" fill-opacity="1" d="M0,192L26.7,186.7C53.3,181,107,171,160,176C213.3,181,267,203,320,213.3C373.3,224,427,224,480,197.3C533.3,171,587,117,640,96C693.3,75,747,85,800,96C853.3,107,907,117,960,106.7C1013.3,96,1067,64,1120,64C1173.3,64,1227,96,1280,122.7C1333.3,149,1387,171,1413,181.3L1440,192L1440,320L1413.3,320C1386.7,320,1333,320,1280,320C1226.7,320,1173,320,1120,320C1066.7,320,1013,320,960,320C906.7,320,853,320,800,320C746.7,320,693,320,640,320C586.7,320,533,320,480,320C426.7,320,373,320,320,320C266.7,320,213,320,160,320C106.7,320,53,320,27,320L0,320Z"></path></svg>